<?xml version="1.0" encoding="UTF-8" standalone="no"?>
<svg
   xmlns:dc="http://purl.org/dc/elements/1.1/"
   xmlns:cc="http://creativecommons.org/ns#"
   xmlns:rdf="http://www.w3.org/1999/02/22-rdf-syntax-ns#"
   xmlns:svg="http://www.w3.org/2000/svg"
   xmlns="http://www.w3.org/2000/svg"
   xmlns:sodipodi="http://sodipodi.sourceforge.net/DTD/sodipodi-0.dtd"
   xmlns:inkscape="http://www.inkscape.org/namespaces/inkscape"
   width="12"
   height="12"
   viewBox="0 0 12 12"
   version="1.1"
   id="svg13"
   sodipodi:docname="c-16.svg"
   inkscape:version="1.0.1 (3bc2e813f5, 2020-09-07)">
  <metadata
     id="metadata19">
    <rdf:RDF>
      <cc:Work
         rdf:about="">
        <dc:format>image/svg+xml</dc:format>
        <dc:type
           rdf:resource="http://purl.org/dc/dcmitype/StillImage" />
        <dc:title>c</dc:title>
      </cc:Work>
    </rdf:RDF>
  </metadata>
  <defs
     id="defs17" />
  <sodipodi:namedview
     pagecolor="#ffffff"
     bordercolor="#666666"
     borderopacity="1"
     objecttolerance="10"
     gridtolerance="10"
     guidetolerance="10"
     inkscape:pageopacity="0"
     inkscape:pageshadow="2"
     inkscape:window-width="1920"
     inkscape:window-height="1022"
     id="namedview15"
     showgrid="true"
     inkscape:zoom="28.123336"
     inkscape:cx="12.957487"
     inkscape:cy="7.9267386"
     inkscape:window-x="0"
     inkscape:window-y="27"
     inkscape:window-maximized="1"
     inkscape:current-layer="svg13"
     inkscape:document-rotation="0">
    <inkscape:grid
       type="xygrid"
       id="grid836" />
  </sodipodi:namedview>
  <!-- Generator: Sketch 52 (66869) - http://www.bohemiancoding.com/sketch -->
  <title
     id="title2">c</title>
  <desc
     id="desc4">Created with Sketch.</desc>
  <g
     id="Page-1"
     stroke="none"
     stroke-width="1"
     fill="none"
     fill-rule="evenodd"
     transform="matrix(0.046575,0,0,0.046575,0.69045,0.03840282)">
    <g
       id="c">
      <path
         d="m 227.98842,75.264 c -0.002,-4.304889 -0.92358,-8.108444 -2.78676,-11.372444 -1.83024,-3.210667 -4.57247,-5.900445 -8.24897,-8.028445 C 186.5993,38.378667 156.21652,20.947556 125.87381,3.4453333 117.69342,-1.272 109.76152,-1.1004444 101.64169,3.6853333 89.560359,10.803556 29.072672,45.424 11.048203,55.853333 3.6257344,60.146667 0.01335938,66.716444 0.01157812,75.256 0,110.41867 0.01157812,145.57956 0,180.74311 c 0.00178125,4.20978 0.88439063,7.93956 2.6656406,11.15556 1.831125,3.30666 4.6107656,6.07111 8.3727654,8.24711 18.02536,10.42933 78.521063,45.04711 90.599724,52.16711 8.12339,4.78844 16.05529,4.95911 24.23835,0.24 30.3436,-17.50311 60.72816,-34.93333 91.086,-52.41778 3.762,-2.17511 6.54164,-4.94133 8.37277,-8.24533 1.77858,-3.216 2.66297,-6.94578 2.66475,-11.15645 0,0 0,-70.30577 -0.0116,-105.46933"
         id="Path"
         fill="#a9b9cb" />
      <path
         d="M 125.66808,3.6746667 C 117.50105,-1.0311111 109.5825,-0.85955556 101.47603,3.9137778 89.414297,11.013333 29.025469,45.544 11.030391,55.946667 3.6195,60.228444 0.01335938,66.781333 0.01157812,75.298667 0,110.36978 0.01157812,145.44 0,180.512 c 0.00178125,4.19911 0.88260938,7.91911 2.6611875,11.12622 1.8284531,3.29867 4.6036406,6.056 8.3594065,8.22578 4.122703,2.38311 10.472859,6.03378 17.954109,10.32889 L 195.60352,43.888889 C 172.28873,30.489778 148.96772,17.101333 125.66808,3.6746667"
         id="path7"
         fill="#7f8b99" />
      <path
         d="m 137.56237,111.97156 35.48161,0.24977 c 0,-14.754663 -14.96428,-50.887997 -57.86657,-50.887997 -27.334176,0 -64.081363,17.344 -64.081363,67.208887 0,49.864 36.023109,66.12445 64.081363,66.12445 45.43701,0 56.2964,-31.37956 56.2964,-49.11289 l -33.84998,-1.93156 c 0,0 0.90576,20.51111 -22.62722,20.51111 -21.722344,0 -25.347188,-26.55822 -25.347188,-35.59111 0,-13.73066 4.892203,-35.772442 25.347188,-35.772442 20.45587,0 22.56576,19.201782 22.56576,19.201782"
         id="path9"
         fill="#ffffff" />
    </g>
  </g>
</svg>
