<?xml version="1.0" encoding="UTF-8" standalone="no"?>
<svg
   xmlns:dc="http://purl.org/dc/elements/1.1/"
   xmlns:cc="http://creativecommons.org/ns#"
   xmlns:rdf="http://www.w3.org/1999/02/22-rdf-syntax-ns#"
   xmlns:svg="http://www.w3.org/2000/svg"
   xmlns="http://www.w3.org/2000/svg"
   xmlns:sodipodi="http://sodipodi.sourceforge.net/DTD/sodipodi-0.dtd"
   xmlns:inkscape="http://www.inkscape.org/namespaces/inkscape"
   width="12"
   height="12"
   viewBox="0 0 12 12"
   version="1.1"
   id="svg54"
   sodipodi:docname="go-16.svg"
   inkscape:version="1.0.1 (3bc2e813f5, 2020-09-07)">
  <metadata
     id="metadata60">
    <rdf:RDF>
      <cc:Work
         rdf:about="">
        <dc:format>image/svg+xml</dc:format>
        <dc:type
           rdf:resource="http://purl.org/dc/dcmitype/StillImage" />
        <dc:title>gopher</dc:title>
      </cc:Work>
    </rdf:RDF>
  </metadata>
  <defs
     id="defs58" />
  <sodipodi:namedview
     pagecolor="#ffffff"
     bordercolor="#666666"
     borderopacity="1"
     objecttolerance="10"
     gridtolerance="10"
     guidetolerance="10"
     inkscape:pageopacity="0"
     inkscape:pageshadow="2"
     inkscape:window-width="1920"
     inkscape:window-height="1022"
     id="namedview56"
     showgrid="true"
     inkscape:zoom="26.237014"
     inkscape:cx="2.9723911"
     inkscape:cy="6.5098641"
     inkscape:window-x="0"
     inkscape:window-y="27"
     inkscape:window-maximized="1"
     inkscape:current-layer="svg54"
     inkscape:document-rotation="0">
    <inkscape:grid
       type="xygrid"
       id="grid858" />
  </sodipodi:namedview>
  <!-- Generator: Sketch 52 (66869) - http://www.bohemiancoding.com/sketch -->
  <title
     id="title2">gopher</title>
  <desc
     id="desc4">Created with Sketch.</desc>
  <g
     id="Page-1"
     stroke="none"
     stroke-width="1"
     fill="none"
     fill-rule="evenodd"
     transform="matrix(0.046575,0,0,0.046575,1.6269862,0.0449725)">
    <g
       id="gopher">
      <path
         d="m 2.7066148,138.42022 c 0.3657587,7.54752 7.9003892,4.03023 11.2653692,1.68537 3.218677,-2.27159 4.16965,-0.36639 4.462257,-4.76301 0.219455,-2.93108 0.512062,-5.78888 0.365759,-8.71996 -4.901167,-0.43966 -10.1680934,0.73277 -14.1914397,3.66385 -2.1214008,1.46554 -5.9252918,6.30182 -1.9019455,8.13375"
         id="Path"
         fill="#f6d2a2" />
      <path
         d="m 152.88716,231.18887 c 5.77899,3.59057 16.38599,14.43557 7.68093,19.71151 -8.3393,7.62081 -13.02101,-8.42685 -20.33618,-10.62516 3.14552,-4.32334 7.09572,-8.2803 12.65525,-9.08635 z"
         id="path7"
         fill="#f6d2a2" />
      <path
         d="m 49.450584,243.42613 c -6.803113,1.02588 -10.607004,7.18114 -16.312841,10.33205 -5.340078,3.15091 -7.388327,-1.02588 -7.827237,-1.9052 -0.804669,-0.36638 -0.731518,0.36639 -2.048249,-0.9526 -4.974319,-7.84064 5.120622,-13.55624 10.387548,-17.43992 7.315176,-1.46554 11.923736,4.90956 15.800779,9.96567 z"
         id="path9"
         fill="#f6d2a2" />
      <path
         d="m 185.00078,137.46761 c -0.36576,7.54753 -7.90039,4.03024 -11.26537,1.68537 -3.21868,-2.27158 -4.16965,-0.36638 -4.46226,-4.763 -0.21945,-2.93108 -0.51206,-5.78888 -0.36576,-8.71996 4.90117,-0.43966 10.1681,0.73277 14.19144,3.66385 2.04825,1.46554 5.92529,6.30182 1.90195,8.13374"
         id="path11"
         fill="#f6d2a2" />
      <path
         d="M 165.03035,45.431728 C 191.14552,36.198828 170.73619,0.3663849 147.98599,16.194213 133.06304,3.3707411 112.50739,1.0258777 90.927626,1.0258777 69.78677,2.7112483 49.670039,6.5949282 35.624903,18.905461 12.94786,4.2500648 -7.9735408,39.423015 18.653696,48.28953 c -7.461478,29.017684 1.024125,58.62158 -0.146303,88.15221 -1.097276,26.52626 -8.046693,62.0656 6.656809,85.88062 12.50895,20.371 39.428794,27.62542 61.593774,28.43147 28.309724,1.02587 62.617894,-5.93544 76.370424,-33.41431 13.16732,-26.15988 9.50973,-58.76814 7.82724,-86.97977 -1.68249,-28.50475 1.46304,-57.449155 -5.92529,-84.928022 z"
         id="path13"
         fill="#69d7e2" />
      <path
         d="m 186.97587,132.99772 c -0.73151,-1.53882 -2.1214,-3.29747 -3.43813,-4.25007 -3.36498,-2.41814 -7.68093,-3.73712 -12.14319,-3.88368 -0.1463,-4.54317 -0.29261,-9.526 -0.29261,-15.82782 v -5.71561 c -0.0732,-18.026135 -0.2926,-25.940049 -1.31673,-35.832441 -0.80467,-7.76736 -2.04825,-14.948504 -3.80389,-21.689986 5.92529,-2.271587 9.80234,-6.008713 11.33852,-10.844993 1.46304,-4.469896 0.73152,-9.526008 -1.75564,-13.995904 -2.56031,-4.396618 -6.65681,-7.694083 -11.41167,-9.013068 -5.12062,-1.392263 -10.68016,-0.366385 -16.02023,3.224187 C 143.37743,11.138101 137.89105,8.0604678 131.7463,5.7156045 120.84669,1.6853705 108.19144,0.14655396 91.000778,0.14655396 v 0.7327698 l -0.07315,-0.7327698 C 72.566537,1.6120936 58.960311,4.4698958 47.694942,9.9656693 43.159533,12.163979 39.136187,14.80195 35.624903,17.879583 30.211673,14.508842 24.578988,13.702795 19.385214,15.314889 c -4.828016,1.465539 -8.997665,4.909557 -11.4848249,9.379453 -2.4871595,4.469896 -3.0723735,9.599285 -1.3898833,13.995904 1.6824903,4.396618 5.5595332,7.840636 11.3385212,9.965669 -1.828794,7.400975 -2.779766,15.241612 -2.92607,23.888295 -0.146303,8.426853 0.219456,15.168335 1.536187,30.40995 0.950973,11.35793 1.316732,16.56059 1.463035,22.86242 -4.974319,-0.21984 -9.9486382,1.09915 -13.6793774,3.8104 -1.3167316,0.9526 -2.7797666,2.63797 -3.43813234,4.25006 -0.95097276,2.05176 -0.58521401,3.88368 1.31673154,4.98284 0.292607,3.51729 2.2677043,5.12939 5.2669261,4.83628 2.1945525,-0.21983 4.8280151,-1.39226 7.0957201,-3.00436 0.512062,-0.36638 1.024124,-0.65949 1.536186,-0.87932 0.219456,-0.0733 0.365759,-0.14656 0.585214,-0.21983 0,0 0.438911,-0.14656 0.585214,-0.21983 0.219456,-0.0733 0.438911,-0.14656 0.585215,-0.29311 -0.146304,3.44402 -0.438911,7.03459 -1.097277,15.24161 -0.731517,9.2329 -1.097276,14.28901 -1.24358,19.93134 -0.658365,20.95721 1.828794,36.19883 9.290273,48.28953 2.340856,3.8104 5.193774,7.18114 8.558755,10.25878 -0.658366,0.43966 -3.438133,2.49141 -4.315954,3.15091 -3.072373,2.34486 -5.193774,4.32334 -6.437354,6.52165 -1.609338,2.8578 -1.609338,5.7156 0.219455,8.71996 l 0.07315,0.0733 0.07315,0.0733 c 0.804669,0.80605 1.24358,1.02588 1.828794,1.02588 h 0.07315 0.146303 c 0.07315,0.14655 0.146304,0.21983 0.219455,0.36638 0.219456,0.36639 0.438911,0.6595 0.658366,0.9526 1.828794,2.12504 4.389105,2.63798 7.827237,0.58622 1.828794,-0.9526 3.145526,-2.05175 5.925292,-4.39662 0.07315,-0.0733 0.07315,-0.0733 0.146304,-0.14655 4.462257,-3.81041 6.656809,-5.20267 9.948638,-5.71561 l 1.170428,-0.21983 c 0.438911,0.21983 0.877821,0.36639 1.389883,0.58622 10.387549,4.17679 22.457588,6.44837 34.67393,6.88803 15.800776,0.58622 31.016336,-1.39226 43.891046,-6.08199 3.43813,-1.2457 6.65681,-2.71124 9.72918,-4.32334 1.90195,0.73277 3.51129,2.27159 6.58366,5.86216 0.14631,0.14656 0.14631,0.14656 0.21946,0.29311 0.1463,0.14655 0.1463,0.21983 0.21945,0.29311 0.1463,0.21983 0.36576,0.36638 0.51206,0.58621 2.41401,2.85781 4.02335,4.25007 5.85214,5.05611 2.41401,1.02588 4.75487,0.51295 7.16888,-1.68537 4.2428,-2.63797 4.5354,-6.74148 1.75564,-11.4312 -1.9751,-3.29747 -5.41323,-6.74149 -8.63191,-8.9398 3.80389,-3.73712 7.09572,-8.20702 9.65603,-13.26313 7.02257,-14.06918 9.72918,-30.48322 9.58288,-51.58699 -0.0731,-7.47426 -0.36576,-13.99591 -1.17043,-26.45299 v -0.36639 c 0.36576,0.14656 0.73152,0.36639 1.09728,0.65949 2.2677,1.53882 4.90117,2.78453 7.09572,3.00436 2.99922,0.29311 4.97432,-1.31898 5.26693,-4.83628 1.82879,-1.17243 2.19455,-3.00436 1.24357,-5.05611 z M 163.71362,13.482964 c 4.3891,1.172432 8.19299,4.250065 10.53385,8.353576 2.34086,4.103511 2.99922,8.719961 1.68249,12.823472 -1.38988,4.323341 -4.90117,7.767359 -10.38755,9.819115 -1.09727,-3.956957 -2.41401,-7.840637 -3.87704,-11.577763 2.1214,-1.831924 3.14552,-4.103511 1.46303,-7.327698 -1.68249,-3.224187 -4.60856,-3.590572 -7.60778,-2.637971 -1.90194,-2.491418 -4.02334,-4.689727 -6.2179,-6.741482 4.82802,-3.077633 9.80234,-3.956957 14.4109,-2.711249 z M 7.7540856,38.250584 C 6.2178988,34.293627 6.7299611,29.6039 9.0708171,25.500389 11.411673,21.396878 15.215564,18.172691 19.750973,16.853705 c 4.681712,-1.392262 9.729183,-0.732769 14.703502,2.19831 -2.852919,2.564694 -5.41323,5.495773 -7.607782,8.71996 -3.803891,-1.978478 -7.680934,-2.344863 -9.875487,1.685371 -2.267704,4.323342 0.365759,7.03459 4.096498,9.086346 -0.512062,1.245708 -1.024124,2.564694 -1.463035,3.883679 -0.512062,1.612094 -1.024124,3.297465 -1.463035,4.982835 C 12.801556,45.358451 9.2902724,42.207541 7.7540856,38.250584 Z m 8.8513614,99.876526 c -0.07315,0 -0.512062,0.14655 -0.512062,0.21983 -0.219455,0.0733 -0.43891,0.14655 -0.658366,0.29311 -0.585213,0.21983 -1.170428,0.58621 -1.755642,1.02587 -2.048249,1.46554 -4.5354081,2.5647 -6.4373537,2.71125 -2.1945525,0.21983 -3.4381323,-0.73277 -3.6575875,-3.37074 1.5361868,-0.51294 2.1945525,-0.87932 2.7797665,-1.75865 l -1.170428,-0.87932 c -0.4389105,0.58622 -0.877821,0.80605 -2.1945525,1.24571 -0.073152,0 -0.073152,0 -0.1463035,0.0733 -1.170428,-0.6595 -1.3898833,-1.68538 -0.7315175,-3.15091 0.585214,-1.31899 1.9019455,-2.85781 2.9992218,-3.66385 3.511284,-2.5647 8.1929964,-3.81041 12.8747084,-3.5173 0,1.83193 0.07315,3.66385 0,5.4225 0,0.21983 0,0.36638 -0.07315,0.58621 -0.07315,1.02588 -0.07315,1.46554 -0.146303,1.97848 -0.219456,2.12503 -0.365759,2.41814 -1.170429,2.78453 z m 22.091829,110.57496 c -0.07315,0.0733 -0.07315,0.0733 -0.146303,0.14655 -2.706615,2.34487 -4.023347,3.29747 -5.705837,4.25007 -2.779766,1.68537 -4.681712,1.31898 -5.998443,-0.29311 -0.219456,-0.21983 -0.365759,-0.51294 -0.512063,-0.73277 -0.07315,-0.0733 -0.146303,-0.21983 -0.219455,-0.29311 0,0 0,0 0,-0.0733 0.146304,-1.31899 0.658366,-2.27159 1.975097,-4.32335 0.07315,-0.0733 0.07315,-0.0733 0.07315,-0.14655 0.804669,-1.17243 1.170428,-1.83192 1.536187,-2.63797 l -1.316732,-0.58622 c -0.292607,0.6595 -0.658365,1.24571 -1.389883,2.41814 -0.07315,0.0733 -0.07315,0.0733 -0.07315,0.14656 -1.316731,1.9052 -1.901945,3.07763 -2.194552,4.39662 h -0.07315 c 0,0 0,0 -0.07315,0 h -0.146303 c -0.146304,-0.0733 -0.365759,-0.21983 -0.658366,-0.51294 -2.852918,-4.54318 -0.585214,-8.42685 5.85214,-13.26314 0.804669,-0.58621 3.511284,-2.49141 4.242802,-3.07763 0.146303,0 0.292607,-0.0733 0.43891,-0.14655 3.950195,3.37074 8.558755,6.30182 13.679378,8.71996 0,0.0733 0.07315,0.14655 0.146303,0.21983 -2.999222,0.73277 -5.340078,2.27158 -9.436576,5.78888 z m 122.821794,-7.98719 c 2.2677,3.8104 2.19455,6.88804 -0.65837,9.01307 -0.21946,-0.43966 -0.36576,-0.9526 -0.65837,-1.68537 0,-0.0733 0,-0.0733 -0.0731,-0.14656 -1.02412,-2.78452 -1.68249,-3.95695 -2.92607,-5.27594 l -1.02412,1.02588 c 1.09727,1.02588 1.60934,2.12503 2.63346,4.68973 0,0.0733 0,0.0733 0.0731,0.14655 0.36576,0.9526 0.58522,1.53882 0.80467,2.05175 -1.90194,1.6121 -3.58443,1.90521 -5.34008,1.09916 -1.53618,-0.65949 -2.99922,-2.05176 -5.34007,-4.68973 -0.14631,-0.14655 -0.29261,-0.36638 -0.43891,-0.58621 -0.0732,-0.0733 -0.14631,-0.14656 -0.21946,-0.29311 -0.1463,-0.14656 -0.1463,-0.14656 -0.21945,-0.29311 -2.70662,-3.15091 -4.31596,-4.83628 -6.0716,-5.78888 4.0965,-2.34486 7.75409,-4.98284 11.04591,-8.06047 3.07238,2.27159 6.51051,5.64233 8.41246,8.79324 z m 1.02412,-23.74174 c -6.29105,12.67692 -17.41012,21.61671 -32.33307,27.0392 -12.72841,4.61645 -27.79767,6.52165 -43.378992,5.93544 -26.846692,-0.9526 -50.108949,-10.33206 -61.00856,-28.06508 -7.315175,-11.7976 -9.729183,-26.81938 -9.070817,-47.48349 0.219455,-5.64233 0.512062,-10.69844 1.24358,-19.93134 0.804669,-10.40533 1.024124,-13.40968 1.243579,-18.09941 0.146304,-3.37074 0.146304,-6.81476 0.07315,-10.47861 C 19.165759,119.44148 18.8,114.31209 17.849027,102.8076 16.532296,87.565991 16.166537,80.897786 16.31284,72.54421 16.532296,61.552663 17.995331,51.880102 21.067704,42.72048 26.042023,27.845252 35.185992,17.806306 48.353307,11.284655 59.399222,5.8621584 72.785992,3.0776332 91.000778,1.6120936 c 17.044362,0 29.480152,1.5388166 40.233462,5.4957735 12.87471,4.7630039 22.45759,13.1165789 29.04125,25.9400509 4.2428,10.405331 6.72996,21.616709 8.04669,34.513458 1.02412,9.819115 1.24358,17.733029 1.31673,35.685894 v 5.7156 c 0.0731,8.86651 0.21946,15.09506 0.58521,21.3236 0.14631,2.41814 0.21946,3.44402 0.58522,9.2329 0.80467,12.45709 1.09727,18.90546 1.17043,26.37971 0.1463,21.0305 -2.48716,37.22471 -9.43658,51.07406 z m 22.38444,-80.2383 c -0.0732,0 -0.14631,-0.0733 -0.21946,-0.0733 -1.31673,-0.43966 -1.75564,-0.73277 -2.19455,-1.24571 l -1.17043,0.87932 c 0.65837,0.87933 1.31673,1.24571 2.77977,1.75865 -0.29261,2.63797 -1.53619,3.59057 -3.65759,3.37074 -1.90195,-0.14655 -4.38911,-1.31898 -6.43735,-2.71125 -0.58522,-0.43966 -1.17043,-0.73277 -1.75565,-1.02587 -0.0731,0 -0.1463,-0.0733 -0.21945,-0.0733 -0.29261,-4.03024 -0.29261,-5.05611 -0.43891,-7.18115 -0.0731,-1.31898 -0.14631,-2.63797 -0.21946,-3.95695 4.0965,0.0733 8.11985,1.31898 11.19222,3.59057 1.09728,0.80605 2.41401,2.34486 2.99922,3.66385 0.73152,1.24571 0.58522,2.34486 -0.65836,3.00435 z"
         id="Shape"
         fill="#000000"
         fill-rule="nonzero" />
      <g
         id="Group"
         transform="translate(79.999071,71.320287)">
        <path
           d="m 22.018677,5.2759426 c 0.07315,3.737126 0.804669,7.8406374 0.146304,11.7975934 -1.024125,1.905202 -2.926071,2.125033 -4.608561,2.857803 -2.340856,-0.366385 -4.315953,-1.905202 -5.266926,-4.103511 -0.585214,-4.469896 0.146304,-8.7199609 0.365759,-13.1898567 0,-0.146554 2.779766,0.073277 5.266926,0.8060468 2.121401,0.6594928 4.096498,1.7586475 4.096498,1.8319245 z"
           id="path16"
           fill="#ffffff" />
        <path
           d="M 1.3167315,5.5690505 C -0.73151751,13.33641 4.0233463,26.013328 11.850584,15.607997 11.26537,11.211378 11.923735,6.9613131 12.143191,2.6379713 12.216342,2.2715864 1.3898833,5.0561116 1.3167315,5.5690505 Z"
           id="path18"
           fill="#ffffff" />
        <path
           d="M 22.896498,8.7199606 C 22.750194,6.5216512 22.677043,5.6423275 22.677043,4.5431728 V 4.0302339 L 22.164981,3.88368 12.94786,1.0258777 V 0.51293886 L 11.996887,0.7327698 h -0.07315 v 0.073277 L 1.5361868,3.4440181 1.170428,3.5172951 1.0241245,3.88368 c -1.60933851,3.8836799 -1.24357975,9.745838 0.8046693,13.33641 2.340856,4.103511 6.144747,4.176788 10.0217902,-0.512939 1.097276,2.125033 3.145525,3.590572 5.486381,3.956957 h 0.219455 l 0.219456,-0.07328 c 0.292606,-0.146554 0.585213,-0.219831 1.097276,-0.439661 0.07315,0 0.07315,0 0.146303,-0.07328 2.121401,-0.73277 2.999222,-1.318986 3.730739,-2.711249 l 0.07315,-0.07328 v -0.146554 c 0.219456,-1.318985 0.292607,-2.711248 0.292607,-4.250065 0,-1.099154 -0.07315,-2.125032 -0.219455,-4.1767874 z M 11.192218,6.0087124 C 11.119066,7.327698 11.045914,7.8406369 10.972763,8.5734067 10.826459,11.284655 10.826459,13.33641 11.045914,15.388166 7.6077821,19.784785 4.9011673,19.784785 3.0723735,16.487321 1.3167315,13.409687 0.95097276,8.2070218 2.2677043,4.7630037 L 11.484825,2.4181403 c -0.07315,0.9526008 -0.146304,1.9052015 -0.292607,3.5905721 z M 21.433463,16.853705 c -0.512062,0.879324 -1.170428,1.318986 -2.92607,1.905202 -0.07315,0 -0.07315,0 -0.146304,0.07328 -0.43891,0.146554 -0.731517,0.293108 -0.950972,0.366385 -1.975098,-0.366385 -3.657588,-1.685371 -4.462257,-3.517295 -0.219455,-1.978479 -0.219455,-4.030234 -0.07315,-6.7414824 0.07315,-0.7327698 0.07315,-1.2457087 0.219455,-2.5646943 0.146304,-1.6853706 0.219456,-2.7112483 0.219456,-3.663849 l 7.973541,2.4181403 c 0,0.9526008 0.07315,1.8319245 0.219455,3.737126 0.146303,1.9784784 0.219455,3.0043564 0.219455,4.1767874 0,1.392263 -0.07315,2.637972 -0.292607,3.810403 z"
           id="path20"
           fill="#000000"
           fill-rule="nonzero" />
      </g>
      <g
         id="g30"
         transform="translate(35.599201,16.165932)">
        <path
           d="M 1.6824903,28.504745 C 8.4124514,54.737904 50.328405,47.996422 48.719066,21.689986 46.817121,-9.8191153 -4.7548638,-3.737126 1.6824903,28.504745"
           id="path23"
           fill="#ffffff" />
        <path
           d="M 49.450584,21.616709 C 49.011673,13.995903 45.646693,8.0604678 40.087159,4.3233418 35.11284,0.95260074 28.529183,-0.3663849 22.018677,0.43966188 15.508171,1.3189856 9.5097276,4.2500648 5.5595331,8.8665146 1.170428,13.995903 -0.51206226,20.737385 1.0241245,28.504745 L 1.6824903,28.358191 1.0241245,28.504745 C 7.9003891,55.470674 51.059922,48.949023 49.450584,21.616709 Z M 2.340856,28.358191 C 0.87782101,20.957216 2.4871595,14.655396 6.5836576,9.8923923 10.314397,5.5690505 15.947082,2.7112483 22.164981,1.9052015 28.382879,1.0991547 34.600778,2.3448634 39.28249,5.5690505 44.476265,9.0863456 47.62179,14.582119 48.0607,21.83654 49.596887,47.410206 8.8513619,53.565472 2.340856,28.358191 Z"
           id="path25"
           fill="#000000"
           fill-rule="nonzero" />
        <ellipse
           id="Oval"
           fill="#000000"
           cx="13.240467"
           cy="24.181404"
           rx="7.0957198"
           ry="7.6940827" />
        <ellipse
           id="ellipse28"
           fill="#ffffff"
           cx="16.459145"
           cy="25.94005"
           rx="1.6824902"
           ry="1.9784784" />
      </g>
      <g
         id="g40"
         transform="translate(95.188064,13.31312)">
        <path
           d="M 0.87782101,26.45299 C 6.0715953,56.569829 55.229572,48.582638 48.133852,18.245968 41.76965,-9.0130686 -0.87782101,-1.4655396 0.87782101,26.45299"
           id="path32"
           fill="#ffffff" />
        <path
           d="M 48.792218,18.099414 C 42.281712,-9.9656693 -1.6093385,-2.2715864 0.1463035,26.526267 v 0.07328 C 2.5603113,40.815278 15.215564,48.069699 29.187549,45.724836 35.551751,44.625681 41.257587,41.548048 44.988327,37.004875 49.084825,31.948763 50.54786,25.427112 48.792218,18.099414 Z M 43.891051,36.125551 C 40.379767,40.375616 35.039689,43.306695 28.968093,44.332573 15.727627,46.530882 3.8770428,39.716123 1.5361868,26.379713 -0.07315175,-0.7327698 41.330739,-7.9871908 47.475486,18.392522 c 1.609339,6.961313 0.292607,13.043302 -3.584435,17.733029 z"
           id="path34"
           fill="#000000"
           fill-rule="nonzero" />
        <ellipse
           id="ellipse36"
           fill="#000000"
           cx="12.94786"
           cy="25.134005"
           rx="6.9494162"
           ry="7.6940827" />
        <ellipse
           id="ellipse38"
           fill="#ffffff"
           cx="16.166536"
           cy="26.892653"
           rx="1.6093385"
           ry="1.9784784" />
      </g>
      <g
         id="g50"
         transform="translate(73.097025,51.826076)">
        <path
           d="M 9.7291829,9.2328995 C 3.9501946,9.7458383 -0.73151751,16.560598 2.2677043,21.983094 c 3.9501945,7.181144 12.8015567,-0.659493 18.2879377,0.07328 6.364202,0.146554 11.557977,6.741482 16.605448,1.172432 5.632684,-6.155267 -2.414008,-12.163979 -8.778211,-14.8019503 z"
           id="path42"
           fill="#f6d2a2" />
        <path
           d="M 37.892607,14.142457 C 35.91751,11.65104 32.479377,9.3794535 28.748638,7.8406369 L 28.602335,7.7673599 H 28.456031 L 9.7291829,8.5001297 C 3.218677,9.0863456 -1.463035,16.633874 1.6824903,22.349479 c 1.2435797,2.198309 2.92607,3.297464 5.1937743,3.444018 1.6824903,0.07328 3.4381324,-0.293108 6.1447474,-1.245709 0.219455,-0.07328 0.512062,-0.146554 0.877821,-0.293108 3.657587,-1.245708 5.120622,-1.612093 6.583657,-1.392262 h 0.07315 c 1.755642,0 3.218677,0.512939 5.998444,1.612093 3.072373,1.245709 4.023346,1.612094 5.559533,1.758648 2.1214,0.146554 3.950194,-0.586216 5.632685,-2.41814 2.852918,-3.150911 2.706614,-6.521652 0.146303,-9.672562 z m -1.24358,8.646684 c -1.389883,1.538816 -2.779766,2.051755 -4.462257,1.978478 -1.316731,-0.07328 -2.194552,-0.439662 -5.120622,-1.612093 -2.92607,-1.245709 -4.535409,-1.685371 -6.437354,-1.758648 C 18.8,21.177047 17.263813,21.543432 13.38677,22.862418 13.021012,23.008972 12.728405,23.082249 12.508949,23.155526 7.1688716,24.98745 4.6085603,24.840896 2.8529183,21.616709 0.21945525,16.853705 4.2428016,10.405331 9.7291829,9.8923923 L 28.236576,9.1596226 c 3.511284,1.4655394 6.656809,3.5905714 8.485603,5.8621584 2.194552,2.637971 2.267704,5.275942 -0.07315,7.76736 z"
           id="path44"
           fill="#231f20"
           fill-rule="nonzero" />
        <g
           transform="translate(8.77821)"
           fill="#000000"
           id="g48">
          <path
             d="M 21.067704,6.0819894 C 18.8,-2.2715864 -0.21945525,-1.0258777 0.21945525,8.9397916 1.170428,16.340767 23.262257,14.362288 21.067704,6.0819894 Z"
             id="path46" />
        </g>
      </g>
    </g>
  </g>
</svg>
